<?xml version="1.0" encoding="utf-8" ?>
<svg xmlns="http://www.w3.org/2000/svg" xmlns:xlink="http://www.w3.org/1999/xlink" width="125" height="104">
	<defs>
		<clipPath id="clip_0">
			<rect y="0.089477539" width="124.99021" height="103.89624" clip-rule="evenodd"/>
		</clipPath>
	</defs>
	<g clip-path="url(#clip_0)">
		<path fill="rgb(11,95,124)" stroke="none" transform="translate(0 0.0894165)" d="M31.4961 0.137598L123.504 33.3008L123.515 33.2941C124.049 33.4861 124.49 33.8667 124.75 34.3603C125.321 35.4467 124.88 36.7789 123.763 37.3358L109.988 44.2174C111.124 46.6853 111.458 49.4326 110.944 52.0907C109.553 59.2843 102.431 64.0188 95.0367 62.6652L94.1849 64.9225C93.8562 65.7928 93.0034 66.3708 92.0506 66.3708C91.7838 66.3708 91.5196 66.3256 91.2686 66.2354L72.0692 59.3817L70.5015 63.5336C69.706 65.6398 68.1106 67.3685 66.0448 68.3647L66.0448 92.8563C66.0448 96.5197 62.9922 99.4895 59.227 99.4895C55.4621 99.4895 52.4102 96.5197 52.4102 92.8563L52.4102 90.6454L21.8334 90.6454C20.3535 93.9382 17.3244 96.3274 13.7072 97.0575L13.7072 101.699C13.7072 102.921 12.6906 103.91 11.4347 103.91L2.27275 103.91C1.01761 103.91 0 102.921 0 101.699L0 66.3266C0 65.1055 1.01761 64.1154 2.27275 64.1154L11.4347 64.1154C12.6906 64.1154 13.7072 65.1055 13.7072 66.3266L13.7072 70.9692C17.3244 71.6984 20.3535 74.0885 21.8334 77.3806L52.4102 77.3806L52.4102 66.0984C49.0761 63.8111 47.7466 59.6246 49.1715 55.9059L50.7392 51.754L29.4056 44.1339C28.228 43.7126 27.6243 42.4435 28.0563 41.2976L30.4061 35.069L19.7412 31.2593L19.7392 31.2593C18.5614 30.8381 17.9577 29.5672 18.3907 28.4213L28.5758 1.44866C28.5768 1.44771 28.5768 1.44676 28.5778 1.44581C29.0117 0.299905 30.3192 -0.285542 31.4961 0.137598ZM98.0406 45.1063C98.158 45.0756 98.2772 45.0551 98.3973 45.0449L117.082 35.7018L32.0558 5.05511L23.4403 27.8775L69.0538 44.1739L75.4386 38.3323C76.066 37.7589 76.9721 37.5797 77.7798 37.8684L98.0406 45.1063ZM90.703 61.3301L33.1049 40.753L34.6737 36.6009L68.8041 48.7944C69.6115 49.0799 70.5176 48.901 71.1463 48.3296L77.5232 42.4889L95.4029 48.8779L90.703 61.3301ZM96.634 58.438C100.755 58.8269 104.628 56.4666 106.068 52.6893C106.845 50.6007 106.778 48.3017 105.881 46.2586L100.146 49.1321L96.634 58.438ZM66.2356 62.0112L67.8036 57.8593L66.5169 57.4009L54.9985 53.2868L53.4296 57.4359L53.4296 57.4368C52.5646 59.7296 53.774 62.2701 56.1297 63.1116L60.4039 64.635C62.7595 65.4755 65.3696 64.3011 66.2356 62.0112ZM56.9545 68.1124L58.8361 68.7759C59.6925 69.0744 60.5908 69.2462 61.4998 69.2843L61.4998 77.3806L56.9545 77.3806L56.9545 68.1124ZM9.16292 99.4895L4.54525 99.4895L4.54525 68.5375L9.16292 68.5375L9.16292 99.4895ZM18.2524 86.2244C18.2485 89.034 16.4291 91.5379 13.7072 92.4789L13.7072 75.5481C16.4291 76.4879 18.2485 78.992 18.2524 81.8024L18.2524 86.2244ZM61.4998 86.2244L22.8682 86.2244L22.8682 81.8023L61.4998 81.8023L61.4998 86.2244ZM59.227 95.0675C57.9721 95.0675 56.9545 94.0774 56.9545 92.8563L56.9545 90.6454L61.4998 90.6454L61.4998 92.8563C61.4998 94.0774 60.4821 95.0675 59.227 95.0675Z" fill-rule="evenodd"/>
	</g>
	<defs>
		<clipPath id="clip_1">
			<rect x="-1012" y="-721" width="1366" height="2709" clip-rule="evenodd"/>
		</clipPath>
	</defs>
	<g clip-path="url(#clip_1)">
		<path fill="rgb(11,95,124)" stroke="none" transform="translate(43 25)" d="M0 3.65712L1.34248 0L5 1.34309L3.65669 5L0 3.65712"/>
	</g>
	<defs>
		<clipPath id="clip_2">
			<rect x="-1012" y="-721" width="1366" height="2709" clip-rule="evenodd"/>
		</clipPath>
	</defs>
	<g clip-path="url(#clip_2)">
		<path fill="rgb(11,95,124)" stroke="none" transform="translate(52 29)" d="M0 3.65773L1.34227 0L5 1.34311L3.65689 5L0 3.65773"/>
	</g>
	<defs>
		<clipPath id="clip_3">
			<rect x="-1012" y="-721" width="1366" height="2709" clip-rule="evenodd"/>
		</clipPath>
	</defs>
	<g clip-path="url(#clip_3)">
		<path fill="rgb(11,95,124)" stroke="none" transform="translate(61 32)" d="M0 3.65691L1.34311 0L5 1.34288L3.65669 5L0 3.65691"/>
	</g>

</svg>