<?xml version="1.0" encoding="utf-8" ?>
<svg xmlns="http://www.w3.org/2000/svg" xmlns:xlink="http://www.w3.org/1999/xlink" width="125" height="126">
	<defs>
		<clipPath id="clip_0">
			<rect x="0.014648438" y="0.0010375977" width="124.95679" height="124.99896" clip-rule="evenodd"/>
		</clipPath>
	</defs>
	<g clip-path="url(#clip_0)">
		<path fill="rgb(11,95,124)" stroke="none" transform="translate(29.1304 0.0010376)" d="M34.1665 0.173767L65.4165 13.853C66.1755 14.1843 66.666 14.9333 66.6665 15.7614L66.6665 48.4719C66.6555 55.8224 63.123 62.7228 57.1665 67.03L35.5686 82.6052C34.2349 83.5705 32.4319 83.5705 31.0979 82.6052L9.5 67.028C3.54346 62.7206 0.0112305 55.8205 0 48.4697L0 15.7614C0.000244141 14.9333 0.491211 14.1843 1.25 13.853L32.5 0.173767C33.0313 -0.0579224 33.6355 -0.0579224 34.1665 0.173767ZM54.7292 63.6508C59.6011 60.1279 62.4905 54.4841 62.5 48.4719L62.5 17.124L33.3333 4.35712L4.1665 17.124L4.1665 48.4719C4.17603 54.4841 7.06543 60.1279 11.9375 63.6508L33.3333 79.0822L54.7292 63.6508Z" fill-rule="evenodd"/>
	</g>
	<defs>
		<clipPath id="clip_1">
			<rect x="0.014648438" y="0.0010375977" width="124.95679" height="124.99896" clip-rule="evenodd"/>
		</clipPath>
	</defs>
	<g clip-path="url(#clip_1)">
		<path fill="rgb(11,95,124)" stroke="none" transform="translate(37.4636 9.0968)" d="M1.25 10.2072L24.1667 0.17395C24.698 -0.0579834 25.3022 -0.0579834 25.8333 0.17395L48.7502 10.2072C49.509 10.5385 49.9998 11.2877 50.0002 12.1156L50.0002 39.3761C49.9937 44.0504 47.7471 48.4384 43.9585 51.1761L26.2188 63.972C25.4912 64.4967 24.509 64.4967 23.7813 63.972L6.04175 51.1761C2.25317 48.4384 0.0065918 44.0504 0 39.3761L0 12.1156C0.000488281 11.2877 0.491211 10.5385 1.25 10.2072ZM45.8333 39.3761L45.8333 13.476L25 4.3573L4.16675 13.476L4.16675 39.3761C4.1731 42.7115 5.77637 45.8422 8.47925 47.7968L25 59.7135L41.5208 47.7968C44.2236 45.8422 45.8271 42.7115 45.8333 39.3761Z" fill-rule="evenodd"/>
	</g>
	<defs>
		<clipPath id="clip_2">
			<rect x="0.014648438" y="0.0010375977" width="124.95679" height="124.99896" clip-rule="evenodd"/>
		</clipPath>
	</defs>
	<g clip-path="url(#clip_2)">
		<path fill="rgb(11,95,124)" stroke="none" transform="translate(0 54.6778)" d="M12.7177 3.95963L17.2241 14.4887C20.7365 12.1615 25.3572 12.4015 28.6096 15.0805C32.1135 18.3012 36.1487 20.891 40.5366 22.7348C43.2956 23.7094 45.7092 25.4699 47.4804 27.7992C50.5012 31.7008 52.1108 36.5109 52.0471 41.445L52.0471 45.3219C54.3481 45.3219 56.2136 47.1877 56.2136 49.4889L56.2136 66.1554C56.2136 68.4567 54.3481 70.3222 52.0471 70.3222L29.1303 70.3222C26.8291 70.3222 24.9636 68.4567 24.9636 66.1554L24.9636 49.4889C24.9658 48.435 25.3696 47.4218 26.0927 46.6554L13.2531 33.8139C11.3642 31.9279 9.83176 29.716 8.7302 27.2846L0.56589 9.32413C-0.392606 7.15348 -0.119901 4.63639 1.28073 2.7211C2.68161 0.805819 4.99778 -0.216886 7.35691 0.0387295C9.71604 0.294345 11.7595 1.78873 12.7177 3.95963ZM44.2282 30.4013C46.6567 33.5651 47.9438 37.4572 47.8803 41.445L47.8803 45.3219L30.6533 45.3219L16.1992 30.8678C14.664 29.3351 13.4182 27.5375 12.5219 25.5617L4.35739 7.60123C4.00901 6.83463 4.07395 5.94351 4.52951 5.23551C4.98532 4.5275 5.7695 4.09952 6.61154 4.09928C7.60251 4.0983 8.49802 4.68961 8.88669 5.60123L13.5468 16.4699C14.7846 19.3698 16.5683 22.0043 18.801 24.2306L28.3178 33.7492C28.8408 34.2909 29.6155 34.508 30.344 34.3173C31.0722 34.1266 31.6411 33.5578 31.8318 32.8293C32.0224 32.101 31.8054 31.3263 31.2636 30.8031L21.747 21.2846C20.79 20.33 19.9297 19.2831 19.1782 18.1596C21.1789 16.62 23.978 16.6667 25.9262 18.2719C29.8205 21.8461 34.3218 24.6964 39.2177 26.6889C41.2126 27.4142 42.9536 28.704 44.2282 30.4013ZM29.1303 66.1554L52.0471 66.1554L52.0471 49.4889L29.1303 49.4889L29.1303 66.1554Z" fill-rule="evenodd"/>
	</g>
	<defs>
		<clipPath id="clip_3">
			<rect x="0.014648438" y="0.0010375977" width="124.95679" height="124.99896" clip-rule="evenodd"/>
		</clipPath>
	</defs>
	<g clip-path="url(#clip_3)">
		<path fill="rgb(11,95,124)" stroke="none" transform="translate(41.6304 110.417)" d="M4.16675 0L2.08325 0C0.932861 0 0 0.932861 0 2.08325C0 3.23389 0.932861 4.16675 2.08325 4.16675L4.16675 4.16675C5.31738 4.16675 6.25 3.23389 6.25 2.08325C6.25 0.932861 5.31738 0 4.16675 0"/>
	</g>
	<defs>
		<clipPath id="clip_4">
			<rect x="0.014648438" y="0.0010375977" width="124.95679" height="124.99896" clip-rule="evenodd"/>
		</clipPath>
	</defs>
	<g clip-path="url(#clip_4)">
		<path fill="rgb(11,95,124)" stroke="none" transform="translate(68.7136 54.5803)" d="M55.648 9.42172L47.4834 27.3822C46.3818 29.8136 44.8496 32.0255 42.9604 33.9115L30.1208 46.753C30.844 47.5194 31.2478 48.5326 31.25 49.5865L31.25 66.253C31.25 68.5543 29.3845 70.4198 27.0833 70.4198L4.16675 70.4198C1.86548 70.4198 0 68.5543 0 66.253L0 49.5865C0 47.2852 1.86548 45.4195 4.16675 45.4195L4.16675 41.5426C4.10156 36.6065 5.71118 31.794 8.7334 27.8905C10.5044 25.5611 12.9182 23.8006 15.6772 22.8258C20.0649 20.9823 24.1003 18.3927 27.6042 15.1717C30.8547 12.4847 35.4773 12.231 39.0022 14.5467L43.498 4.05722C44.4312 1.84775 46.4829 0.313322 48.866 0.0425697C51.249 -0.228182 53.5928 0.806486 54.998 2.75009C56.4036 4.69345 56.6519 7.24374 55.648 9.42172ZM25.5605 45.4195L8.3335 45.4195L8.3335 41.5426C8.27051 37.5555 9.55737 33.6642 11.9856 30.5011C13.2576 28.805 14.9944 27.5142 16.9854 26.7865C21.8826 24.7945 26.3843 21.9442 30.2791 18.3695C32.2253 16.752 35.0322 16.6976 37.0398 18.2384C36.2861 19.3705 35.4214 20.4242 34.4583 21.3844L24.9416 30.9029C24.1523 31.7205 24.1633 33.0199 24.967 33.8233C25.7705 34.627 27.0701 34.6383 27.8874 33.849L37.4043 24.3299C39.637 22.1041 41.4209 19.4693 42.6582 16.5697L47.3188 5.69882C47.7085 4.78842 48.6035 4.19809 49.594 4.19882C50.4358 4.19906 51.2202 4.62729 51.6758 5.33529C52.1316 6.0433 52.1965 6.93442 51.8479 7.70102L43.6836 25.6615C42.7871 27.6371 41.5415 29.4347 40.0063 30.9676L25.5605 45.4195ZM4.16675 66.253L27.0833 66.253L27.0833 49.5865L4.16675 49.5865L4.16675 66.253Z" fill-rule="evenodd"/>
	</g>
	<defs>
		<clipPath id="clip_5">
			<rect x="-514" y="-703" width="1366" height="2709" clip-rule="evenodd"/>
		</clipPath>
	</defs>
	<g clip-path="url(#clip_5)">
		<path fill="rgb(11,95,124)" stroke="none" transform="translate(77 111)" d="M4.66667 0L2.33333 0C1.04457 0 0 0.895529 0 1.99988C0 3.10447 1.04457 4 2.33333 4L4.66667 4C5.95543 4 7 3.10447 7 1.99988C7 0.895529 5.95543 0 4.66667 0"/>
	</g>
	<defs>
		<clipPath id="clip_6">
			<rect x="-514" y="-703" width="1366" height="2709" clip-rule="evenodd"/>
		</clipPath>
	</defs>
	<g clip-path="url(#clip_6)">
		<path fill="rgb(11,95,124)" stroke="none" transform="translate(48 25)" d="M3.31432 19.0572C2.39918 18.3709 1.10076 18.5564 0.414281 19.4715C-0.271951 20.3867 -0.0864962 21.6851 0.828642 22.3716L9.11441 28.5859C9.47294 28.8548 9.9089 29 10.357 29C10.4745 28.9998 10.5915 28.99 10.7073 28.9711C11.2683 28.8747 11.7649 28.5519 12.0805 28.0783L28.6518 3.22124C29.0625 2.60539 29.1135 1.81744 28.7857 1.15378C28.4578 0.490359 27.8007 0.0519622 27.0623 0.00438424C26.3236 -0.0436792 25.6155 0.306116 25.2051 0.921959L9.84749 23.9582L3.31432 19.0572"/>
	</g>

</svg>