<?xml version="1.0" encoding="utf-8" ?>
<svg xmlns="http://www.w3.org/2000/svg" xmlns:xlink="http://www.w3.org/1999/xlink" width="112" height="114">
	<defs>
		<clipPath id="clip_0">
			<rect x="-282" y="-711" width="1366" height="2709" clip-rule="evenodd"/>
		</clipPath>
	</defs>
	<g clip-path="url(#clip_0)">
		<path fill="rgb(11,95,124)" stroke="none" transform="translate(0 17)" d="M108.267 13.0577C108.267 16.7903 106.682 20.1536 104.162 22.5357C108.595 23.2558 112 27.0798 112 31.7115L112 59.6923C112 64.1972 108.787 67.9634 104.533 68.8308L104.533 97L100.8 97L100.8 69.0192L84 69.0192L84 95.1346C84 96.1643 83.1637 97 82.1333 97L70.9333 97C69.9029 97 69.0667 96.1643 69.0667 95.1346L69.0667 65.2885L57.8667 65.2885L57.8667 93.2692L65.3333 93.2692L65.3333 97L46.6667 97L46.6667 93.2692L54.1333 93.2692L54.1333 65.2885L42.9333 65.2885L42.9333 95.1346C42.9333 96.1643 42.0971 97 41.0667 97L29.8667 97C28.8363 97 28 96.1643 28 95.1346L28 69.0192L11.2 69.0192L11.2 97L7.46667 97L7.46667 68.8308C3.21253 67.9634 0 64.1956 0 59.6923L0 31.7115C0 27.0798 3.4048 23.2558 7.83813 22.5357C5.31813 20.1536 3.73333 16.7903 3.73333 13.0577C3.73333 5.85731 9.59467 0 16.8 0C24.0053 0 29.8667 5.85731 29.8667 13.0577C29.8667 17.6391 27.4885 21.6702 23.9064 24C26.3741 25.6807 28 28.5087 28 31.7115L28 44.7692L35.4667 44.7692L35.4667 35.4423C35.4667 28.768 40.5067 23.2539 46.984 22.4853C44.4939 20.107 42.9333 16.7642 42.9333 13.0577C42.9333 5.85731 48.7947 0 56 0C63.2053 0 69.0667 5.85731 69.0667 13.0577C69.0667 16.7642 67.5064 20.107 65.016 22.4853C71.4933 23.2539 76.5333 28.768 76.5333 35.4423L76.5333 44.7692L84 44.7692L84 31.7115C84 28.5087 85.6259 25.6807 88.0936 24C84.5115 21.6702 82.1333 17.6391 82.1333 13.0577C82.1333 5.85731 87.9947 0 95.2 0C102.405 0 108.267 5.85731 108.267 13.0577ZM7.46667 13.0577C7.46667 7.91483 11.6536 3.73077 16.8 3.73077C21.9464 3.73077 26.1333 7.91483 26.1333 13.0577C26.1333 18.2006 21.9464 22.3846 16.8 22.3846C11.6536 22.3846 7.46667 18.2006 7.46667 13.0577ZM56 3.73077C50.8536 3.73077 46.6667 7.91483 46.6667 13.0577C46.6667 18.2006 50.8536 22.3846 56 22.3846C61.1464 22.3846 65.3333 18.2006 65.3333 13.0577C65.3333 7.91483 61.1464 3.73077 56 3.73077ZM85.8667 13.0577C85.8667 7.91483 90.0536 3.73077 95.2 3.73077C100.346 3.73077 104.533 7.91483 104.533 13.0577C104.533 18.2006 100.346 22.3846 95.2 22.3846C90.0536 22.3846 85.8667 18.2006 85.8667 13.0577ZM31.7333 67.1538L31.7333 93.2692L39.2 93.2692L39.2 63.4231C39.2 60.3377 36.6875 57.8269 33.6 57.8269L16.8 57.8269C15.7696 57.8269 14.9333 56.9912 14.9333 55.9615L14.9333 37.3077L18.6667 37.3077L18.6667 54.0962L44.8 54.0962L44.8 48.5L26.1333 48.5C25.1029 48.5 24.2667 47.6643 24.2667 46.6346L24.2667 31.7115C24.2667 28.6262 21.7541 26.1154 18.6667 26.1154L9.33333 26.1154C6.24587 26.1154 3.73333 28.6262 3.73333 31.7115L3.73333 59.6923C3.73333 62.7777 6.24587 65.2885 9.33333 65.2885L29.8667 65.2885C30.8971 65.2885 31.7333 66.1242 31.7333 67.1538ZM48.5333 26.1154C43.3869 26.1154 39.2 30.2994 39.2 35.4423L39.2 44.7692L46.6667 44.7692C47.6971 44.7692 48.5333 45.6049 48.5333 46.6346L48.5333 54.0962L63.4667 54.0962L63.4667 46.6346C63.4667 45.6049 64.3029 44.7692 65.3333 44.7692L72.8 44.7692L72.8 35.4423C72.8 30.2994 68.6131 26.1154 63.4667 26.1154L62.8936 26.1154L57.7491 39.8278C57.4747 40.5553 56.7784 41.0385 56 41.0385C55.2216 41.0385 54.5253 40.5553 54.2528 39.8278L49.1064 26.1154L48.5333 26.1154ZM58.9064 26.1154L56 33.8605L53.0936 26.1154L58.9064 26.1154ZM108.267 59.6923C108.267 62.7777 105.754 65.2885 102.667 65.2885L82.1333 65.2885C81.1029 65.2885 80.2667 66.1242 80.2667 67.1538L80.2667 93.2692L72.8 93.2692L72.8 63.4231C72.8 60.3377 75.3125 57.8269 78.4 57.8269L95.2 57.8269C96.2304 57.8269 97.0667 56.9912 97.0667 55.9615L97.0667 37.3077L93.3333 37.3077L93.3333 54.0962L67.2 54.0962L67.2 48.5L85.8667 48.5C86.8971 48.5 87.7333 47.6643 87.7333 46.6346L87.7333 31.7115C87.7333 28.6262 90.2459 26.1154 93.3333 26.1154L102.667 26.1154C105.754 26.1154 108.267 28.6262 108.267 31.7115L108.267 59.6923ZM69.2757 61.5577L42.7243 61.5577C42.4424 60.1829 41.8768 58.9107 41.0629 57.8269L70.9371 57.8269C70.1232 58.9107 69.5576 60.1829 69.2757 61.5577Z" fill-rule="evenodd"/>
	</g>
	<defs>
		<clipPath id="clip_1">
			<rect x="-282" y="-711" width="1366" height="2709" clip-rule="evenodd"/>
		</clipPath>
	</defs>
	<g clip-path="url(#clip_1)">
		<path fill="rgb(11,95,124)" stroke="none" transform="translate(54 62)" d="M0 4L4 4L4 0L0 0L0 4Z"/>
	</g>
	<defs>
		<clipPath id="clip_2">
			<rect x="-282" y="-711" width="1366" height="2709" clip-rule="evenodd"/>
		</clipPath>
	</defs>
	<g clip-path="url(#clip_2)">
		<path fill="rgb(11,95,124)" stroke="none" transform="translate(19 0)" d="M1.875 0L28.125 0C29.16 0 30 0.8512 30 1.9L30 11.4C30 12.4488 29.16 13.3 28.125 13.3L19.3744 13.3L12.375 18.62C12.0431 18.8708 11.6475 19 11.25 19C10.965 19 10.6762 18.9335 10.4119 18.8005C9.77625 18.4775 9.375 17.8201 9.375 17.1L9.375 13.3L1.875 13.3C0.84 13.3 0 12.4488 0 11.4L0 1.9C0 0.8512 0.84 0 1.875 0ZM18.75 9.5L26.25 9.5L26.25 3.8L3.75 3.8L3.75 9.5L11.25 9.5C12.285 9.5 13.125 10.3512 13.125 11.4L13.125 13.3L17.625 9.88C17.9494 9.633 18.345 9.5 18.75 9.5Z" fill-rule="evenodd"/>
	</g>
	<defs>
		<clipPath id="clip_3">
			<rect x="-282" y="-711" width="1366" height="2709" clip-rule="evenodd"/>
		</clipPath>
	</defs>
	<g clip-path="url(#clip_3)">
		<path fill="rgb(11,95,124)" stroke="none" transform="translate(65 5)" d="M0 4L4 4L4 0L0 0L0 4Z"/>
	</g>
	<defs>
		<clipPath id="clip_4">
			<rect x="-282" y="-711" width="1366" height="2709" clip-rule="evenodd"/>
		</clipPath>
	</defs>
	<g clip-path="url(#clip_4)">
		<path fill="rgb(11,95,124)" stroke="none" transform="translate(73 5)" d="M0 4L4 4L4 0L0 0L0 4Z"/>
	</g>
	<defs>
		<clipPath id="clip_5">
			<rect x="-282" y="-711" width="1366" height="2709" clip-rule="evenodd"/>
		</clipPath>
	</defs>
	<g clip-path="url(#clip_5)">
		<path fill="rgb(11,95,124)" stroke="none" transform="translate(80 5)" d="M0 4L4 4L4 0L0 0L0 4Z"/>
	</g>

</svg>