<?xml version="1.0" encoding="utf-8" ?>
<svg xmlns="http://www.w3.org/2000/svg" xmlns:xlink="http://www.w3.org/1999/xlink" width="114" height="114">
	<defs>
		<clipPath id="clip_0">
			<rect x="0.013427734" width="54.836796" height="114" clip-rule="evenodd"/>
		</clipPath>
	</defs>
	<g clip-path="url(#clip_0)">
		<path fill="rgb(11,95,124)" stroke="none" transform="translate(0 93.5156)" d="M52.6054 0L2.2449 0C1.00504 0 0 0.996832 0 2.22656C0 3.45629 1.00504 4.45313 2.2449 4.45313L50.3605 4.45313L50.3605 18.2578C50.3605 19.4875 51.3655 20.4844 52.6054 20.4844C53.8452 20.4844 54.8503 19.4875 54.8503 18.2578L54.8503 2.22656C54.8503 0.996832 53.8452 0 52.6054 0"/>
	</g>
	<defs>
		<clipPath id="clip_1">
			<rect x="0.013427734" width="54.836796" height="114" clip-rule="evenodd"/>
		</clipPath>
	</defs>
	<g clip-path="url(#clip_1)">
		<path fill="rgb(11,95,124)" stroke="none" d="M40.9651 0C39.7253 0 38.7202 0.996832 38.7202 2.22656L38.7202 18.2591L2.2449 18.2591C1.00504 18.2591 0 19.256 0 20.4857C0 21.7154 1.00504 22.7123 2.2449 22.7123L40.9651 22.7123C42.205 22.7123 43.21 21.7154 43.21 20.4857L43.21 2.22656C43.21 0.996832 42.205 0 40.9651 0"/>
	</g>
	<defs>
		<clipPath id="clip_2">
			<rect x="0.013427734" width="54.836796" height="114" clip-rule="evenodd"/>
		</clipPath>
	</defs>
	<g clip-path="url(#clip_2)">
		<path fill="rgb(11,95,124)" stroke="none" transform="translate(0 34.2904)" d="M19.2729 0L2.2449 0C1.00504 0 0 0.996832 0 2.22656C0 3.45629 1.00504 4.45313 2.2449 4.45313L17.028 4.45313L17.028 43.194L2.2449 43.194C1.00504 43.194 0 44.1908 0 45.4205C0 46.6503 1.00504 47.6471 2.2449 47.6471L19.2729 47.6471C20.5128 47.6471 21.5178 46.6503 21.5178 45.4205L21.5178 2.22656C21.5178 0.996832 20.5128 0 19.2729 0"/>
	</g>
	<defs>
		<clipPath id="clip_3">
			<rect x="-760" y="-714" width="1366" height="2709" clip-rule="evenodd"/>
		</clipPath>
	</defs>
	<g clip-path="url(#clip_3)">
		<path fill="rgb(11,95,124)" stroke="none" transform="translate(28 34)" d="M24.7981 31.2729C24.7981 14.2686 38.5257 0.434421 55.399 0.434421C72.2724 0.434421 86 14.2684 86 31.2729C86 38.3204 83.5799 45.2072 79.1842 50.6744C79.1764 50.6846 79.1689 50.6949 79.1609 50.705L59.9415 75.5307L70.4073 75.5307C71.632 75.5307 72.6247 76.5311 72.6247 77.7653C72.6247 78.9995 71.632 80 70.4073 80L40.4616 80C39.2369 80 38.2441 78.9995 38.2441 77.7653C38.2441 76.5311 39.2369 75.5307 40.4616 75.5307L50.8552 75.5307L31.7425 50.8543C31.7037 50.8042 31.6673 50.753 31.6334 50.7005C30.891 49.7789 30.2062 48.8165 29.5785 47.8207L2.21746 47.8207C0.992757 47.8207 0 46.8202 0 45.586L0 2.23467C0 1.00046 0.992757 0 2.21746 0L29.2334 0C30.4582 0 31.4509 1.00046 31.4509 2.23467C31.4509 3.46888 30.4582 4.46935 29.2334 4.46935L4.43492 4.46935L4.43492 43.3513L27.2459 43.3513C25.6447 39.5569 24.7981 35.446 24.7981 31.2729ZM75.6127 48.0225C75.638 47.9874 75.6644 47.9525 75.6919 47.9186C79.4793 43.2356 81.5651 37.324 81.5653 31.2729C81.5653 16.733 69.8272 4.90377 55.3993 4.90377C40.9714 4.90377 29.2332 16.733 29.2332 31.2729C29.2332 37.3892 31.3582 43.3496 35.2166 48.056C35.2816 48.1353 35.3403 48.2182 35.3931 48.3043L55.3988 74.1331L75.6127 48.0225Z" fill-rule="evenodd"/>
	</g>
	<defs>
		<clipPath id="clip_4">
			<rect x="-760" y="-714" width="1366" height="2709" clip-rule="evenodd"/>
		</clipPath>
	</defs>
	<g clip-path="url(#clip_4)">
		<path fill="rgb(11,95,124)" stroke="none" transform="translate(49 0)" d="M39.7802 0C38.5542 0 37.5603 1.00946 37.5603 2.25477L37.5603 18.488L4.43965 18.4905L4.43965 2.25477C4.43965 1.00946 3.44584 0 2.21983 0C0.993816 0 0 1.00946 0 2.25477L0 20.7452C0 21.3432 0.23397 21.9168 0.650187 22.3396C1.0664 22.7623 1.63135 23 2.22005 23L39.7802 22.9973C41.0062 22.9973 42 21.9876 42 20.7425L42 2.25477C42 1.00946 41.0062 0 39.7802 0"/>
	</g>
	<defs>
		<clipPath id="clip_5">
			<rect x="-760" y="-714" width="1366" height="2709" clip-rule="evenodd"/>
		</clipPath>
	</defs>
	<g clip-path="url(#clip_5)">
		<path fill="rgb(11,95,124)" stroke="none" transform="translate(98 0)" d="M13.8378 18.4905L4.32432 18.4905L4.32432 2.25477C4.32432 1.00946 3.35632 0 2.16216 0C0.968 0 0 1.00946 0 2.25477L0 20.7452C0 21.9905 0.968 23 2.16216 23L13.8378 23C15.032 23 16 21.9905 16 20.7452C16 19.4999 15.032 18.4905 13.8378 18.4905"/>
	</g>
	<defs>
		<clipPath id="clip_6">
			<rect x="-760" y="-714" width="1366" height="2709" clip-rule="evenodd"/>
		</clipPath>
	</defs>
	<g clip-path="url(#clip_6)">
		<path fill="rgb(11,95,124)" stroke="none" transform="translate(103 34)" d="M8.86727 0L2.13273 0C0.954825 0 0 1.11925 0 2.5C0 3.88075 0.954825 5 2.13273 5L8.86727 5C10.0452 5 11 3.88075 11 2.5C11 1.11925 10.0452 0 8.86727 0"/>
	</g>
	<defs>
		<clipPath id="clip_7">
			<rect x="-760" y="-714" width="1366" height="2709" clip-rule="evenodd"/>
		</clipPath>
	</defs>
	<g clip-path="url(#clip_7)">
		<path fill="rgb(11,95,124)" stroke="none" transform="translate(65 48)" d="M0 17.9999C0 8.05885 8.05885 0 17.9999 0C27.9411 0 36 8.05885 36 17.9999C36 27.9411 27.9411 36 17.9999 36C8.05885 36 0 27.9411 0 17.9999ZM31.4152 17.9999C31.4152 10.6028 25.397 4.58485 17.9999 4.58485C10.6028 4.58485 4.58485 10.6028 4.58485 17.9999C4.58485 25.397 10.6028 31.4152 17.9999 31.4152C25.397 31.4152 31.4152 25.397 31.4152 17.9999Z" fill-rule="evenodd"/>
	</g>

</svg>