<?xml version="1.0" encoding="utf-8" ?>
<svg xmlns="http://www.w3.org/2000/svg" xmlns:xlink="http://www.w3.org/1999/xlink" width="30" height="31">
	<defs>
		<clipPath id="clip_0">
			<rect width="30" height="31" clip-rule="evenodd"/>
		</clipPath>
	</defs>
	<g clip-path="url(#clip_0)">
		<path fill="rgb(6,72,112)" stroke="none" transform="translate(0 3)" d="M27.2643 16.4462C26.858 16.4462 26.5286 16.7938 26.5286 17.2227L26.5286 24.1172C26.5272 25.4033 25.54 26.4455 24.3215 26.4467L3.67851 26.4467C2.46 26.4455 1.47288 25.4033 1.4714 24.1172L1.4714 3.88242C1.47288 2.59665 2.46 1.55448 3.67851 1.55292L10.2107 1.55292C10.6171 1.55292 10.9464 1.20537 10.9464 0.776421C10.9464 0.347858 10.6171 0 10.2107 0L3.67851 0C1.64783 0.00233253 0.00228365 1.73921 0 3.88242L0 24.1175C0.00228365 26.2608 1.64783 27.9975 3.67851 28L24.3215 28C26.3522 27.9975 27.9977 26.2608 28 24.1175L28 17.2227C28 16.7938 27.6706 16.4462 27.2643 16.4462"/>
	</g>
	<defs>
		<clipPath id="clip_1">
			<rect width="30" height="31" clip-rule="evenodd"/>
		</clipPath>
	</defs>
	<g clip-path="url(#clip_1)">
		<path fill="rgb(6,72,112)" stroke="none" transform="translate(9 0)" d="M14.6617 0.98844C15.9198 -0.32948 17.9596 -0.32948 19.2178 0.98844L20.0578 1.8685C21.3141 3.18732 21.3141 5.32223 20.0578 6.64105L7.28591 20.0206C7.19839 20.1123 7.08986 20.1785 6.97072 20.213L0.907028 21.9728C0.658427 22.0449 0.392192 21.9713 0.209613 21.7803C0.0272481 21.589 -0.0429306 21.3101 0.0261012 21.0497L1.70573 14.6979C1.73871 14.573 1.80193 14.4594 1.88946 14.3677L14.6617 0.98844ZM18.2863 6.37598L19.0455 5.58062C19.7433 4.84796 19.7433 3.66182 19.0455 2.92894L18.2052 2.04895C17.5063 1.31689 16.3732 1.31689 15.6743 2.04895L14.9148 2.84423L18.2863 6.37598ZM3.44931 14.8552L13.9024 3.90497L17.2737 7.43642L6.82025 18.3866L3.44931 14.8552ZM5.46929 19.0922L2.7759 16.2706L1.74372 20.1735L5.46929 19.0922Z" fill-rule="evenodd"/>
	</g>

</svg>