<?xml version="1.0" encoding="utf-8" ?>
<svg xmlns="http://www.w3.org/2000/svg" xmlns:xlink="http://www.w3.org/1999/xlink" width="12" height="10">
	<defs>
		<clipPath id="clip_0">
			<rect x="-985" y="-2611" width="1366" height="2709" clip-rule="evenodd"/>
		</clipPath>
	</defs>
	<g clip-path="url(#clip_0)">
		<path fill="rgb(255,255,255)" stroke="none" transform="translate(0.999268 0.0822754)" d="M0.5811 0L11.0461 0C11.3672 0 11.6272 0.266667 11.6272 0.596L11.6272 8.54667C11.6272 8.876 11.3672 9.14267 11.0461 9.14267L0.5811 9.14267C0.26 9.14267 0 8.876 0 8.54667L0 0.596C0 0.266667 0.26 0 0.5811 0ZM11.0461 8.744C11.1527 8.744 11.2398 8.656 11.2398 8.54667L11.2398 0.596C11.2398 0.486667 11.1527 0.397333 11.0461 0.397333L0.5811 0.397333C0.4745 0.397333 0.3874 0.486667 0.3874 0.596L0.3874 8.54667C0.3874 8.656 0.4745 8.744 0.5811 8.744L11.0461 8.744Z" fill-rule="evenodd"/>
	</g>
	<defs>
		<clipPath id="clip_1">
			<rect x="-985" y="-2611" width="1366" height="2709" clip-rule="evenodd"/>
		</clipPath>
	</defs>
	<g clip-path="url(#clip_1)">
		<path fill="rgb(255,255,255)" stroke="none" transform="translate(1.77441 0.876953)" d="M9.89975 0.000693165C9.84905 -0.00330683 9.79835 0.0126932 9.75935 0.0460265L5.28735 3.89936C5.14305 4.02336 4.93375 4.02336 4.78815 3.89936L0.318754 0.0460265C0.265454 0.000693165 0.192654 -0.0126402 0.126354 0.0126932C0.0626538 0.0353598 0.0145538 0.0940265 0.00285378 0.164693C-0.00884622 0.234027 0.0158538 0.306027 0.0691538 0.35136L4.53985 4.20203C4.82845 4.45136 5.24835 4.45136 5.53695 4.20203L10.0077 0.35136C10.0467 0.316693 10.0714 0.268693 10.0766 0.216693C10.0805 0.16336 10.0649 0.11136 10.0324 0.0713598C9.99855 0.0300265 9.95045 0.0060265 9.89975 0.000693165"/>
	</g>
	<defs>
		<clipPath id="clip_2">
			<rect x="-985" y="-2611" width="1366" height="2709" clip-rule="evenodd"/>
		</clipPath>
	</defs>
	<g clip-path="url(#clip_2)">
		<path fill="rgb(255,255,255)" stroke="none" transform="translate(1.771 5.04736)" d="M2.95499 0.00487741C2.88609 -0.0111226 2.81589 0.0128774 2.76779 0.0675441L0.0559855 3.04754C0.00528552 3.09954 -0.0116145 3.17421 0.00788552 3.24354C0.0286855 3.31288 0.0832855 3.36621 0.152186 3.38088C0.219786 3.39688 0.291286 3.37288 0.338086 3.31954L3.05119 0.338211C3.10059 0.286211 3.11879 0.211544 3.09799 0.143544C3.07849 0.0742107 3.02389 0.0208774 2.95499 0.00487741"/>
	</g>
	<defs>
		<clipPath id="clip_3">
			<rect x="-985" y="-2611" width="1366" height="2709" clip-rule="evenodd"/>
		</clipPath>
	</defs>
	<g clip-path="url(#clip_3)">
		<path fill="rgb(255,255,255)" stroke="none" transform="translate(8.74683 5.04712)" d="M0.338674 0.0675441C0.291874 0.0128774 0.220374 -0.0111226 0.151474 0.00487741C0.0838742 0.0208774 0.0292742 0.0742107 0.00847416 0.143544C-0.0123258 0.211544 0.00587416 0.286211 0.0552742 0.338211L2.76837 3.31954C2.84247 3.39688 2.96337 3.39954 3.03877 3.32621C3.11677 3.25288 3.12197 3.12888 3.05177 3.04754L0.338674 0.0675441Z"/>
	</g>

</svg>