<?xml version="1.0" encoding="utf-8" ?>
<svg xmlns="http://www.w3.org/2000/svg" xmlns:xlink="http://www.w3.org/1999/xlink" width="10" height="10">
	<defs>
		<clipPath id="clip_0">
			<rect x="-898.60986" y="-2414.29" width="1243.0601" height="2465.1902" clip-rule="evenodd"/>
		</clipPath>
	</defs>
	<g clip-path="url(#clip_0)">
		<path fill="rgb(255,255,255)" stroke="none" transform="matrix(0.91 0 0 0.91 0.407715 0.817139)" d="M9.33425 8.2875L8.84285 9.13017C8.73365 9.3195 8.55685 9.46084 8.34885 9.52217C7.35695 9.80217 5.62015 9.57017 2.99155 6.87417C0.364253 4.1795 0.138053 2.39817 0.411053 1.37817C0.470853 1.16617 0.606053 0.983504 0.793253 0.872838L1.61485 0.368838C1.72665 0.298171 1.87355 0.331504 1.94635 0.444838L2.65745 1.5395L3.25415 2.45684C3.32565 2.56884 3.30225 2.71684 3.20085 2.7995L2.46635 3.38484C2.24275 3.5595 2.17775 3.87684 2.31685 4.12884L2.37405 4.23817C2.58205 4.62617 2.83815 5.10884 3.77545 6.07017C4.71145 7.0315 5.18335 7.2955 5.56165 7.50617L5.66825 7.56617C5.91265 7.7075 6.22205 7.64217 6.39235 7.41284L6.96565 6.6595C7.04495 6.55417 7.19055 6.5315 7.29845 6.6035L9.25885 7.94617C9.36935 8.02217 9.40315 8.1715 9.33425 8.2875M9.44085 7.67017L7.47785 6.3275C7.22955 6.15817 6.89545 6.21417 6.71085 6.4555L6.14015 7.20884C6.06605 7.30884 5.93215 7.33684 5.82685 7.27684L5.71765 7.2155C5.35625 7.01417 4.90905 6.76217 4.00425 5.8355C3.10075 4.90884 2.85635 4.44884 2.66005 4.0795L2.60025 3.96884C2.54045 3.8595 2.56775 3.72084 2.66525 3.64617L3.39975 3.0595C3.63375 2.8715 3.68835 2.52884 3.52325 2.27284L2.21545 0.259504C2.04775 -0.000495785 1.70845 -0.0764958 1.44845 0.0835042L0.626853 0.588838C0.369453 0.744838 0.179653 0.995504 0.0990533 1.2915C-0.196047 2.3955 0.0262533 4.30217 2.76275 7.10884C4.94025 9.34217 6.56135 9.94217 7.67545 9.94217C7.93155 9.94351 8.18635 9.90884 8.43465 9.84084C8.72195 9.75817 8.96895 9.5635 9.11975 9.2995L9.61375 8.45817C9.76975 8.19017 9.69305 7.8435 9.44085 7.67017"/>
	</g>

</svg>